<?xml version="1.0" encoding="UTF-8" standalone="no"?>
<svg
   xmlns:dc="http://purl.org/dc/elements/1.1/"
   xmlns:cc="http://creativecommons.org/ns#"
   xmlns:rdf="http://www.w3.org/1999/02/22-rdf-syntax-ns#"
   xmlns:svg="http://www.w3.org/2000/svg"
   xmlns="http://www.w3.org/2000/svg"
   id="svg39"
   xml:space="preserve"
   viewBox="0 0 550 445"
   height="445"
   width="550"
   version="1.1"><metadata
     id="metadata43"><rdf:RDF><cc:Work
         rdf:about=""><dc:format>image/svg+xml</dc:format><dc:type
           rdf:resource="http://purl.org/dc/dcmitype/StillImage" /></cc:Work></rdf:RDF></metadata><defs
     id="defs4"><style
       id="style2"
       type="text/css">@import url(&quot;https://fonts.googleapis.com/css2?family=Aldrich:wght@400&quot;);</style></defs><defs
     id="defs6" /><g
     id="icon"
     transform="matrix(0.16 0 0 0.16 275 169.3)"><g
       id="g28"
       style=""><g
         id="icon_piece"
         transform="matrix(1 0 0 1 5.42 11.96)"><linearGradient
           y2="205.87483838166958"
           x2="292.26995664698006"
           y1="0"
           x1="0"
           gradientTransform="matrix(1 0 0 1 163.17 212.9)"
           gradientUnits="userSpaceOnUse"
           id="SVGID_17"><stop
             id="stop8"
             style="stop-color:rgb(13,71,161);stop-opacity: 1"
             offset="0%" /></linearGradient><path
           id="path11"
           stroke-linecap="round"
           d="M 333.927 366.825 c -49.027 15.711 -102.5 -5.691 -127.133 -50.879 l -2.223 -4.072 l -41.401 21.807 l 2.257 4.184 c 35.219 65.264 112.092 96.189 182.788 73.535 c 81.018 -25.961 125.813 -112.995 99.852 -194.018 l -1.435 -4.48 l -44.576 14.281 l 1.435 4.48 C 421.572 288.106 390.365 348.737 333.927 366.825 z"
           transform=" translate(-309.3, -315.84)"
           style="stroke: none; stroke-width: 1; stroke-dasharray: none; stroke-linecap: butt; stroke-dashoffset: 0; stroke-linejoin: miter; stroke-miterlimit: 4; fill: url(#SVGID_17); fill-rule: nonzero; opacity: 1;" /></g><g
         id="g19"
         transform="matrix(1 0 0 1 13.54 -8.37)"><linearGradient
           y2="399.72753709048095"
           x2="435.26792843666703"
           y1="0"
           x1="0"
           gradientTransform="matrix(1 0 0 1 99.79 95.65)"
           gradientUnits="userSpaceOnUse"
           id="SVGID_18"><stop
             id="stop14"
             style="stop-color:rgb(13,71,161);stop-opacity: 1"
             offset="0%" /></linearGradient><path
           id="path17"
           stroke-linecap="round"
           d="M 143.174 346.614 l -43.385 19.234 l 2.243 4.424 c 12.178 24.02 28.262 45.445 47.798 63.662 c 92.379 86.152 237.628 81.09 323.782 -11.293 c 86.153 -92.385 81.09 -237.629 -11.293 -323.782 l -3.443 -3.208 l -31.924 34.229 l 3.442 3.208 c 73.507 68.554 77.537 184.122 8.984 257.624 c -68.554 73.506 -184.122 77.537 -257.624 8.984 c -14.703 -13.713 -27.005 -30.238 -36.558 -49.104 L 143.174 346.614 z"
           transform=" translate(-317.42, -295.51)"
           style="stroke: none; stroke-width: 1; stroke-dasharray: none; stroke-linecap: butt; stroke-dashoffset: 0; stroke-linejoin: miter; stroke-miterlimit: 4; fill: url(#SVGID_18); fill-rule: nonzero; opacity: 1;" /></g><g
         id="g26"
         transform="matrix(1 0 0 1 0 0)"><linearGradient
           y2="541.281"
           x2="607.764"
           y1="0"
           x1="0"
           gradientTransform="matrix(1 0 0 1 0 33.24)"
           gradientUnits="userSpaceOnUse"
           id="SVGID_19"><stop
             id="stop21"
             style="stop-color:rgb(13,71,161);stop-opacity: 1"
             offset="0%" /></linearGradient><path
           id="path24"
           stroke-linecap="round"
           d="M 560.955 270.64 c 0 141.75 -115.323 257.074 -257.073 257.074 S 46.808 412.39 46.808 270.64 c 0 -79.618 36.505 -153.244 98.723 -201.917 l -30.877 -35.482 C 42.29 90.664 0 177.057 0 270.64 c 0 167.564 136.318 303.882 303.882 303.882 c 167.563 0 303.882 -136.318 303.882 -303.882 v -4.705 h -46.809 V 270.64 z"
           transform=" translate(-303.88, -303.88)"
           style="stroke: none; stroke-width: 1; stroke-dasharray: none; stroke-linecap: butt; stroke-dashoffset: 0; stroke-linejoin: miter; stroke-miterlimit: 4; fill: url(#SVGID_19); fill-rule: nonzero; opacity: 1;" /></g></g></g><g
     id="logo-name"
     style=""
     transform="matrix(1.66 0 0 1.66 275.83 273.33)"><linearGradient
       y2="33.89999999999999"
       x2="0"
       y1="0"
       x1="0"
       gradientTransform="matrix(1 0 0 1 -122.86 -16.95)"
       gradientUnits="userSpaceOnUse"
       id="SVGID_20"><stop
         id="stop31"
         style="stop-color:rgb(22,82,240);stop-opacity: 1"
         offset="0%" /></linearGradient><text
       id="text36"
       style="stroke: none; stroke-width: 1; stroke-dasharray: none; stroke-linecap: butt; stroke-dashoffset: 0; stroke-linejoin: miter; stroke-miterlimit: 4; fill: url(#SVGID_20); fill-rule: nonzero; opacity: 1; white-space: pre;"
       font-weight="normal"
       font-style="normal"
       font-size="30"
       font-family="Aldrich"
       xml:space="preserve"><tspan
         id="tspan34"
         y="9.42"
         x="-122.86">Nakamoto Plaza</tspan></text>
</g></svg>