<svg id="Layer_1" data-name="Layer 1" xmlns="http://www.w3.org/2000/svg" viewBox="0 0 122.88 121.9"><defs><style>.cls-1{fill-rule:evenodd;}</style></defs><title>price-list</title><path class="cls-1" d="M42.64,63.21a3.43,3.43,0,0,1,0-6.76H80.2a3.43,3.43,0,0,1,0,6.76Zm61.94-.1v4.5a.79.79,0,0,1-.66.78c-.36,0-.72.11-1.08.19a17.2,17.2,0,0,0-2,.51,14.95,14.95,0,0,0-3.5,1.61,12.83,12.83,0,0,0-1.47,1.07A11.83,11.83,0,0,0,94.6,73a11.7,11.7,0,0,0-1.1,1.42,12.28,12.28,0,0,0-2,7,20.34,20.34,0,0,0,.11,2.13,16,16,0,0,0,.35,1.92,12,12,0,0,0,.58,1.69,9.41,9.41,0,0,0,.79,1.47l.06.09a13.55,13.55,0,0,0,2.22,2.53A17.07,17.07,0,0,0,97,92.4a17.87,17.87,0,0,0,1.55,1c1.09.59,2.34,1.31,3.46,1.81l1.91.9,2.84,1.25c.48.24.88.44,1.35.7l.59.39c.17.12.32.24.45.35a3.48,3.48,0,0,1,.38.39l.28.36a3.29,3.29,0,0,1,.29.52,2.61,2.61,0,0,1,.16.42v0a3.79,3.79,0,0,1,.14.53v0a4.58,4.58,0,0,1,.08.66q0,.36,0,.72l0,.48a6.54,6.54,0,0,1-.18.88,4.09,4.09,0,0,1-.34.77,3,3,0,0,1-.59.69l-.34.25a3.27,3.27,0,0,1-.92.36h0A4.83,4.83,0,0,1,107,106c-.37,0-.63,0-1-.07a5.32,5.32,0,0,1-1.8-.64,3.81,3.81,0,0,1-.37-.27l-.37-.33a3.22,3.22,0,0,1-.33-.38,4.07,4.07,0,0,1-.29-.43c-.09-.16-.19-.34-.27-.51a4.87,4.87,0,0,1-.21-.53v0a4.87,4.87,0,0,1-.18-.61v0a6.66,6.66,0,0,1-.13-.72c0-.24-.06-.51-.08-.79h0c0-.3,0-.59,0-.88a.44.44,0,0,0-.13-.31.44.44,0,0,0-.32-.13H90.23a.44.44,0,0,0-.31.13.42.42,0,0,0-.13.31c0,.77,0,1.48.09,2.14s.16,1.32.28,2a13.75,13.75,0,0,0,.47,1.76,13.15,13.15,0,0,0,.63,1.59l.06.12c.24.49.51,1,.8,1.44a15.37,15.37,0,0,0,.94,1.3,12.89,12.89,0,0,0,1.06,1.15,11.68,11.68,0,0,0,1.14,1l.09.07a14.39,14.39,0,0,0,1.26.83c.44.27.89.51,1.36.74s.93.41,1.42.6,1,.33,1.47.47.79.2,1.18.28.82.17,1.2.23a.78.78,0,0,1,.66.77v4.3a2.73,2.73,0,0,0,.36,1.16c.08.15,0,.27.09.27h5.19a.44.44,0,0,0,.45-.45v-5.26a.78.78,0,0,1,.65-.77l.66-.11a20,20,0,0,0,2-.49,16.58,16.58,0,0,0,3.5-1.54,11,11,0,0,0,1.42-1l0,0a11.62,11.62,0,0,0,1.29-1.22,11,11,0,0,0,1.1-1.42,9.93,9.93,0,0,0,.88-1.57,12.6,12.6,0,0,0,.63-1.72,13.9,13.9,0,0,0,.37-1.88,16.2,16.2,0,0,0,.13-2,17.64,17.64,0,0,0-.12-2.11,15.41,15.41,0,0,0-.36-1.91,11,11,0,0,0-.61-1.73,9.65,9.65,0,0,0-.82-1.48l0,0a13.68,13.68,0,0,0-1-1.34,14.23,14.23,0,0,0-1.22-1.24,15.9,15.9,0,0,0-1.34-1.09c-.48-.35-1-.69-1.52-1l-.07,0c-.53-.31-1.09-.63-1.69-1s-1.1-.6-1.76-.93-1.21-.61-1.82-.9c-1-.44-1.92-.87-2.87-1.34l-.77-.42-.65-.38c-.39-.27-.64-.44-1-.74a5.08,5.08,0,0,1-.72-.81,2.12,2.12,0,0,1-.24-.4h0a4.08,4.08,0,0,1-.17-.42,4.29,4.29,0,0,1-.13-.44,4.34,4.34,0,0,1-.07-.52l0-.54,0-.5a7.58,7.58,0,0,1,.18-.95l.16-.46a2.33,2.33,0,0,1,.19-.39,2.41,2.41,0,0,1,.25-.35,3,3,0,0,1,.66-.61,3.24,3.24,0,0,1,.36-.2l.43-.14a3.1,3.1,0,0,1,.53-.1,5.63,5.63,0,0,1,.58,0,3.91,3.91,0,0,1,.76.07,3.58,3.58,0,0,1,.66.19l.05,0a3.38,3.38,0,0,1,.62.34,3.42,3.42,0,0,1,.56.46l.06.06a3.13,3.13,0,0,1,.5.7,5.07,5.07,0,0,1,.31.81l0,.1a8.2,8.2,0,0,1,.22,1.26c0,.44.07.94.08,1.48a.46.46,0,0,0,.1.29l0,0a.44.44,0,0,0,.31.13h11.22a.44.44,0,0,0,.31-.13.44.44,0,0,0,.13-.32,18.6,18.6,0,0,0-.13-2.27,17.17,17.17,0,0,0-.37-2.11,14.34,14.34,0,0,0-.61-1.92,13,13,0,0,0-.84-1.72l-.07-.13a13.6,13.6,0,0,0-1.1-1.59,12.23,12.23,0,0,0-1.29-1.4A12.57,12.57,0,0,0,117,71a14.11,14.11,0,0,0-1.68-1,16.45,16.45,0,0,0-3.76-1.35l-.22,0a.78.78,0,0,1-.65-.77v-4.7a.48.48,0,0,0-.1-.29l0,0a.44.44,0,0,0-.32-.13H105a.46.46,0,0,0-.32.13.44.44,0,0,0-.13.31ZM77.32,112.88a3.39,3.39,0,0,1,0,6.78H7.89A7.89,7.89,0,0,1,0,111.77V7.89A7.89,7.89,0,0,1,7.89,0h96.89a7.89,7.89,0,0,1,7.89,7.89V45.32a3.39,3.39,0,1,1-6.78,0V7.89a1.11,1.11,0,0,0-.33-.78,1.13,1.13,0,0,0-.78-.33H7.89a1.19,1.19,0,0,0-.79.32,1.21,1.21,0,0,0-.32.79V111.76a1.11,1.11,0,0,0,1.11,1.11H77.32ZM42.64,88.08a3.5,3.5,0,0,1,0-6.87H72.17a3.49,3.49,0,0,1,0,6.87Zm0-49.68A3.15,3.15,0,0,1,39.8,35a3.14,3.14,0,0,1,2.84-3.38H80.2A3.15,3.15,0,0,1,83,35,3.14,3.14,0,0,1,80.2,38.4ZM26.35,80a4,4,0,1,1-4,4,4,4,0,0,1,4-4Zm0-24.49a4,4,0,1,1-4,4,4,4,0,0,1,4-4Zm0-24.48a4,4,0,1,1-4,4,4,4,0,0,1,4-4Z"/></svg>